inDegrees=no
num_controls=7
num_derivatives=13
num_iterations=106
num_multipliers=7
num_parameters=0
num_slacks=7
num_states=26
objective=0.545153
objective_accelerations=0.042084
objective_balance=0.003852
objective_effort=0.041112
objective_height=0.448657
objective_ligament=0.009449
solver_duration=1412.921623
status=Solve_Succeeded
success=true
DataType=double
version=3
OpenSimVersion=4.5
endheader
time	/jointset/ground_pelvis/pelvis_tilt/value	/jointset/ground_pelvis/pelvis_tx/value	/jointset/ground_pelvis/pelvis_ty/value	/jointset/hip_r/hip_flexion_r/value	/jointset/hip_r/hip_adduction_r/value	/jointset/hip_r/hip_rotation_r/value	/jointset/back/lumbar_extension/value	/jointset/patellofemoral_r/patellar_flexion_r/value	/jointset/knee_r/knee_flexion_r/value	/jointset/knee_r/knee_adduction_r/value	/jointset/knee_r/knee_rotation_r/value	/jointset/ankle_r/ankle_angle_r/value	/jointset/subtalar_r/subtalar_angle_r/value	/jointset/ground_pelvis/pelvis_tilt/speed	/jointset/ground_pelvis/pelvis_tx/speed	/jointset/ground_pelvis/pelvis_ty/speed	/jointset/hip_r/hip_flexion_r/speed	/jointset/hip_r/hip_adduction_r/speed	/jointset/hip_r/hip_rotation_r/speed	/jointset/back/lumbar_extension/speed	/jointset/patellofemoral_r/patellar_flexion_r/speed	/jointset/knee_r/knee_flexion_r/speed	/jointset/knee_r/knee_adduction_r/speed	/jointset/knee_r/knee_rotation_r/speed	/jointset/ankle_r/ankle_angle_r/speed	/jointset/subtalar_r/subtalar_angle_r/speed	/forceset/tau_hip_flexion_r	/forceset/tau_hip_adduction_r	/forceset/tau_hip_rotation_r	/forceset/tau_knee_flexion_r	/forceset/tau_ankle_angle_r	/forceset/tau_subtalar_angle_r	/forceset/tau_lumbar_extension	lambda_cid13_p0	lambda_cid14_p0	lambda_cid14_p1	lambda_cid14_p2	lambda_cid14_p3	lambda_cid14_p4	lambda_cid14_p5	/jointset/ground_pelvis/pelvis_tilt/accel	/jointset/ground_pelvis/pelvis_tx/accel	/jointset/ground_pelvis/pelvis_ty/accel	/jointset/hip_r/hip_flexion_r/accel	/jointset/hip_r/hip_adduction_r/accel	/jointset/hip_r/hip_rotation_r/accel	/jointset/back/lumbar_extension/accel	/jointset/patellofemoral_r/patellar_flexion_r/accel	/jointset/knee_r/knee_flexion_r/accel	/jointset/knee_r/knee_adduction_r/accel	/jointset/knee_r/knee_rotation_r/accel	/jointset/ankle_r/ankle_angle_r/accel	/jointset/subtalar_r/subtalar_angle_r/accel	gamma_cid13_p0	gamma_cid14_p0	gamma_cid14_p1	gamma_cid14_p2	gamma_cid14_p3	gamma_cid14_p4	gamma_cid14_p5
1.5	-0.2368076548348607	0.00315377156521588	0.8475564614499397	0.8857852338877866	-0.2249148425645646	-0.1430266301469757	-0.3047949409054651	0.6513557437285877	0.6513557437285912	0.03592153288209246	0.1745120025881227	0.1697521295135404	0.03720546121985108	0.5795345149212618	0.2436758648137702	0.4072371094751869	-2.019060639564354	0.01150341259531253	-0.2900501861528818	0.6993370203739341	-1.746286451018318	-1.746286451018322	0.2791371855086117	0.0001151250093376544	-0.3873327678335491	-0.08510112140651525	-0.1491642075110508	-0.02001795692488384	0.007717292734528341	-0.2907664066565578	0.1082388554015863	-0.009948355656819634	0.1793748530889919	-34.01902628604223	-6.877429169291155	-1.216455084926402	-4.267214751264352	-2.699402339321741	-658.4591260512722	57.49477277139875	0.304955113873288	0.5560876209044994	-0.4466314069828125	-1.232201213801246	-0.00194678188273743	-0.5044713373817068	1.694380413225703	-1.119739382401695	-1.119739382401695	0.4723928589873626	-0.001121140465979839	-0.3174949853117319	-0.05060026582612126	1.271482759035052e-07	1.874572100126507e-07	-3.951673075331286e-07	1.271216411448482e-06	-6.335463912225759e-08	2.485760419435166e-07	-4.3701977793011e-07
1.51	-0.2309975337390939	0.005618096839364266	0.8516056478681325	0.8655350956572128	-0.2248008277829091	-0.1459511738275593	-0.2977179506933971	0.6338392327538142	0.633839232753814	0.03873874749827367	0.1745131267989784	0.1658632999845604	0.03635089205790901	0.582412877809293	0.249160750352215	0.402513795155504	-2.030701300249162	0.01129921532741313	-0.2948449341040625	0.7159776846658961	-1.756765132067861	-1.756765132067866	0.2842861747221007	0.00010487275271729	-0.3903650802091141	-0.08579401352823418	-0.1413244886085106	-0.02156408354709091	0.007088276280140529	-0.2878910225818512	0.1101450112087984	-0.01050456157706396	0.1726336998454173	-34.92844602858057	-6.060592240071348	-1.216862234372349	-4.379238404226207	-2.944312987975076	-654.2545217765771	57.59363853562267	0.2677734379531624	0.5404096786758594	-0.498082641079681	-1.090115961857505	-0.02955179094021794	-0.4647123426367701	1.636408831118436	-0.9743678799022675	-0.9743678799023006	0.5332224847135868	-0.001445712849380068	-0.2858840231970278	-0.07573874629661934	1.329704519618077e-07	1.957942163518443e-07	-4.229874197958544e-07	1.327192106199221e-06	-6.573445702553063e-08	2.681759317845903e-07	-4.811219203634465e-07
1.52	-0.2251609297021098	0.008136415100569377	0.8556050209038051	0.8451765273265837	-0.2246888340922721	-0.1489232121513847	-0.2904770539596221	0.6162254478858108	0.6162254478858069	0.04160686611302654	0.1745140547983501	0.1619461903999212	0.03548997296255939	0.5848311031647299	0.2544744622251152	0.3972744329710808	-2.040746659575449	0.01109919439164667	-0.299549114801263	0.7321183247153381	-1.765741229664266	-1.765741229664271	0.2893179852229467	7.588271252436825e-05	-0.3929887789654044	-0.08637110808802671	-0.1334847697059771	-0.02311021016929802	0.006459259825753224	-0.2850156385071446	0.1120511670160104	-0.01106076749730836	0.1658925466018427	-35.805877633721	-5.251588819024263	-1.215379612982098	-4.49528954413765	-3.189449252257787	-650.1774016142354	57.77305537185811	0.2129276073544761	0.5218528877955552	-0.5498409799308235	-0.9131409420971273	-0.001111515456150968	-0.4863578865855921	1.594375564721755	-0.8192226917738004	-0.8192226917738005	0.4489571164587949	-0.004868697180485044	-0.2357722614567563	-0.02744075344084115	1.426001977133039e-07	2.004513436673054e-07	-5.199746327118137e-07	1.354072194595105e-06	-5.904758306555414e-08	2.881009970554376e-07	-5.454387512546596e-07
1.53	-0.2193025717358983	0.01070689934944547	0.8595494693243405	0.8247256473776055	-0.2245789054178483	-0.151942156835928	-0.2830776754388041	0.5985293636784321	0.5985293636784291	0.04452471882875294	0.174514917122885	0.158004745159724	0.03462373027279893	0.5867478930393584	0.25958138721276	0.3915328921254146	-2.049135064494769	0.01088774596428021	-0.304216083914165	0.7476329380620663	-1.773221852450604	-1.773221852450605	0.294232840399429	8.411120443591685e-05	-0.3952411899761913	-0.08685988024766267	-0.125128916016729	-0.02504097355976159	0.005849940254910101	-0.2827197950038596	0.1146159344937349	-0.01180119948945082	0.1586964426490949	-36.64671755358503	-4.245826557173382	-1.264896845526756	-4.596993476486483	-3.45939153956302	-646.1258755457953	57.95532050714467	0.1671851350089007	0.4989554555964826	-0.5986006437736785	-0.7575239063051743	-0.03086657145817581	-0.453055965196034	1.511338011718793	-0.6744508872569074	-0.6744508872563957	0.5097480626349349	0.002058182858186004	-0.2110984775695074	-0.05692792667975458	1.562754862638184e-07	2.011985995200508e-07	-6.904518900718326e-07	1.350038201238957e-06	-4.272734900087514e-08	3.083715612204194e-07	-6.312336886323664e-07
1.54	-0.2134278197794422	0.01332722147846752	0.8634340443350412	0.8041997166515429	-0.2244710322407145	-0.1550070091199109	-0.2755268840261047	0.5807660794801516	0.5807660794801492	0.04749111976512257	0.1745155396444353	0.1540425512180829	0.03375313336555114	0.5881099012136657	0.2644420382543066	0.3852997510041819	-2.055756814992319	0.0106880949336625	-0.3087306346892084	0.7624009030916125	-1.779181227844669	-1.779181227844666	0.299027629351591	2.79221155952377e-05	-0.3971385192541723	-0.08724195158548989	-0.1167730623274808	-0.02697173695022536	0.005240620684066848	-0.2804239515005747	0.1171807019714594	-0.01254163148159329	0.1515003386963472	-37.44634736603731	-3.248221918421704	-1.312325428022983	-4.703048525940225	-3.727952739780122	-642.2072144122225	58.22376424071939	0.1019712672902469	0.4725980985759161	-0.6481610350441176	-0.5598100577430705	0.001247963893600454	-0.455874219013891	1.445045901285341	-0.5149732133192744	-0.5149732133190994	0.4249438715947471	-0.01775221333099805	-0.1647559148955758	-0.0061005890790934	1.680463149280991e-07	2.023470068063511e-07	-8.353617396323128e-07	1.350839280365701e-06	-2.952103098001637e-08	3.300001071673204e-07	-7.080066672022997e-07
